# xmcd
# 
# Track frame offsets:
#     150
#     15980
#     28357
#     52925
#     69090
#     85687
#     102352
#     119185
#     133290
#     146322
#     160770
#     176690
#     198225
#     214150
# 
# Disc length: 3060
# 
# Revision: 66
# Processed by: cddbd v1.5.2PL0 Copyright (c) Steve Scherf et al.
# Submitted via: BonkEnc v1.0.15
# 
DISCID=c00bf20e
DTITLE=The Cranberries - Bury The Hatchet (The Complete Sessions) Disc 1
DYEAR=1999
DGENRE=Rock
TTITLE0=Animal Instinct
TTITLE1=Loud And Clear
TTITLE2=Promises
TTITLE3=You and Me
TTITLE4=Just My Imagination
TTITLE5=Shattered
TTITLE6=Desperate Andy
TTITLE7=Saving Grace
TTITLE8=Copycat
TTITLE9=What's On My Mind
TTITLE10=Delilah
TTITLE11=Fee Fi Fo
TTITLE12=Dying in the Sun
TTITLE13=Sorry Son
EXTD=Produced by: The Cranberries and Benedict Fenner [Island] YEAR: 1999
EXTT0=O'Riordan - Hogan
EXTT1=O'Riordan - Hogan
EXTT2=Dolores O'Riordan
EXTT3=O'Riordan - Hogan
EXTT4=O'Riordan - Hogan
EXTT5=O'Riordan - Hogan
EXTT6=O'Riordan - Hogan
EXTT7=Dolores O'Riordan
EXTT8=O'Riordan - Hogan
EXTT9=Dolores O'Riordan
EXTT10=O'Riordan - Hogan
EXTT11=O'Riordan - Hogan
EXTT12=Dolores O'Riordan
EXTT13=Dolores O'Riordan
PLAYORDER=
